<?xml version="1.0" encoding="utf-8"?>
<!-- Generator: Adobe Illustrator 23.0.1, SVG Export Plug-In . SVG Version: 6.00 Build 0)  -->
<svg version="1.1" id="Layer_1" xmlns="http://www.w3.org/2000/svg" xmlns:xlink="http://www.w3.org/1999/xlink" x="0px" y="0px"
	 viewBox="0 0 1000 1000" style="enable-background:new 0 0 1000 1000;" xml:space="preserve">
<style type="text/css">
	.st0{fill-rule:evenodd;clip-rule:evenodd;fill:#F16C50;}
	.st1{fill-rule:evenodd;clip-rule:evenodd;fill:#FFFFFF;}
</style>
<g id="Artboard" transform="matrix(0.06779661,0,0,0.06779661,32.881356,2.881356)">
	<g id="F6S-logo">
		<path id="Path" class="st0" d="M6890-30.1c-4066.2,0-7362.5,3296.3-7362.5,7362.5S2823.7,14695,6890,14695
			s7362.5-3296.3,7362.5-7362.5S10956.2-30.1,6890-30.1z"/>
		<polygon id="polygon9" class="st1" points="3405.6,11379.6 3332.4,11379.6 2415.4,11379.6 2342.3,11379.6 2342.3,11306.5 
			2342.3,3358.8 2342.3,3285.6 2415.4,3285.6 4860.8,3285.6 4934,3285.6 4934,3358.8 4934,4275.8 4934,4349 4860.8,4349 
			3405.6,4349 3405.6,6648.1 4249.5,6648.1 4322.6,6648.1 4322.6,6721.3 4322.6,7638.3 4322.6,7711.5 4249.5,7711.5 3405.6,7711.5 
			3405.6,11306.5 		"/>
		<path id="Combined-Shape" class="st1" d="M6382.5,4349v2299.2h1261.1c305.2,0,572.9,266.5,572.9,570.2v3584.1
			c0,307.5-267.7,577.2-572.9,577.2H5894.5c-305.4,0-573.2-263-573.2-562.8V3877.5c0-309.8,265.9-591.9,558-591.9h1764.4
			c305.2,0,572.9,266.3,572.9,569.9v1337.3v73.1h-73.1h-917h-73.1v-73.1V4349H6382.5z M6382.8,7711.4v2604.8h770.8V7711.4H6382.8z"
			/>
		<path id="path12" class="st1" d="M11437.7,5192.5v73.1h-73.1h-917h-73.1v-73.1v-843.9h-770.8v2299.2l1272.2,0.3
			c302.6,0,561.9,362.1,561.9,658.5v3491.8c0,309.4-262.6,580.9-561.9,580.9H9165.5c-299.2,0-561.6-264.4-561.6-565.9V8862.2v-73
			l73-0.1l853.5-1.5l73.3-0.1v73.3V10316h770.8V7711.1l-1209.4,0.3c-298.9,0-561.1-267.9-561.1-573.2V3858.9
			c0-305.5,262.4-573.5,561.6-573.5h1710.3c299.3,0,561.9,268,561.9,573.5L11437.7,5192.5z"/>
	</g>
</g>
</svg>
